<?xml version="1.0" encoding="UTF-8"?>
<svg xmlns="http://www.w3.org/2000/svg" viewBox="0 0 800 735">
  <path fill="#f2f0e9" d="M416.99,0H100.32c-25.07,0-45.58,20.49-45.58,45.56v461.31c0,.29.34.42.55.24l21.17-20.15c12.81-12.18,34.75-31.12,57.47-48.95,22.7-17.81,46.19-34.51,62.1-42.19,11.26-5.44,21.39,9.15,12.39,17.81-16.78,16.12-31.7,30.54-35.11,33.72-33.98,31.49-81.59,83.38-118.58,136.15-25.07,35.77-45.27,71.94-53,102.43-3.08,12.13-3.45,29.43,10.73,30.14,15.36.79,25.94-13.36,36.59-24.75,5.95-6.31,12.81-12.89,20.46-19.6,4.26-3.74,8.76-7.52,13.49-11.28,70.52-56.58,188.86-116.66,262.3-106.58,24.15,3.29,27.41,30.06,5.55,35.09-2,.45-3.97.89-5.92,1.32-1.92.45-3.84.87-5.79,1.26-32.72,7.13-67.68,13.52-100.9,24.23-29.2,9.42-57.08,22.12-80.91,41.59h-.03c-19.54,15.97-29.75,30.12-32.27,41.64-3.81,17.36,9.68,28.7,34.56,31.01,1.37.13,2.74.24,4.16.29,1.08.08,2.16.11,3.26.13h.29c.32.03.66.03,1,.03h251.65c100.45,0,191.72-41.09,257.93-107.29,61.63-61.63,101.5-144.98,106.71-237.26C796.57,173.73,629.49,0,416.99,0ZM412.52,487.53c-67.57,0-122.34-54.76-122.34-122.34s54.76-122.31,122.34-122.31,122.31,54.76,122.31,122.31-54.76,122.34-122.31,122.34h0Z"/>
</svg>
