<?xml version="1.0" encoding="UTF-8"?>
<svg id="Layer_1" xmlns="http://www.w3.org/2000/svg" version="1.1" viewBox="0 0 2659.09 730.42">
  <!-- Generator: Adobe Illustrator 30.0.0, SVG Export Plug-In . SVG Version: 2.1.1 Build 123)  -->
  <path d="M416.99,0H100.32c-25.07,0-45.58,20.49-45.58,45.56v461.31c0,.29.34.42.55.24l21.17-20.15c12.81-12.18,34.75-31.12,57.47-48.95,22.7-17.81,46.19-34.51,62.1-42.19,11.26-5.44,21.39,9.15,12.39,17.81-16.78,16.12-31.7,30.54-35.11,33.72-33.98,31.49-81.59,83.38-118.58,136.15-25.07,35.77-45.27,71.94-53,102.43-3.08,12.13-3.45,29.43,10.73,30.14,15.36.79,25.94-13.36,36.59-24.75,5.95-6.31,12.81-12.89,20.46-19.6,4.26-3.74,8.76-7.52,13.49-11.28,70.52-56.58,188.86-116.66,262.3-106.58,24.15,3.29,27.41,30.06,5.55,35.09-2,.45-3.97.89-5.92,1.32-1.92.45-3.84.87-5.79,1.26-32.72,7.13-67.68,13.52-100.9,24.23-29.2,9.42-57.08,22.12-80.91,41.59h-.03c-19.54,15.97-29.75,30.12-32.27,41.64-3.81,17.36,9.68,28.7,34.56,31.01,1.37.13,2.74.24,4.16.29,1.08.08,2.16.11,3.26.13h.29c.32.03.66.03,1,.03h251.65c100.45,0,191.72-41.09,257.93-107.29,61.63-61.63,101.5-144.98,106.71-237.26C796.57,173.73,629.49,0,416.99,0ZM412.52,487.53c-67.57,0-122.34-54.76-122.34-122.34s54.76-122.31,122.34-122.31,122.31,54.76,122.31,122.31-54.76,122.34-122.31,122.34h0Z"/>
  <g>
    <path d="M1024.25,125.46h87.57c15.5,0,30.05,3.12,43.63,9.36,13.59,6.24,25.46,14.55,35.63,24.91,10.16,10.37,18.17,22.45,24.01,36.24,5.84,13.79,8.76,28.23,8.76,43.33s-2.87,29.24-8.61,43.03-13.69,25.92-23.86,36.39-22.04,18.83-35.63,25.06c-13.59,6.24-28.23,9.36-43.94,9.36h-87.57V125.46h0ZM1083.43,303.02h13.59c10.27,0,19.43-1.61,27.48-4.83,8.05-3.22,14.84-7.65,20.38-13.29,5.53-5.63,9.76-12.33,12.68-20.08s4.38-16.25,4.38-25.52-1.51-17.51-4.53-25.37c-3.02-7.85-7.3-14.59-12.83-20.23-5.54-5.63-12.33-10.06-20.38-13.29-8.05-3.22-17.11-4.83-27.18-4.83h-13.59v127.43h0Z"/>
    <path d="M1250.42,274.34c0-11.48,2.31-22.19,6.95-32.16,4.63-9.96,11.07-18.62,19.33-25.97,8.25-7.35,18.07-13.14,29.44-17.36,11.37-4.23,23.8-6.34,37.29-6.34s25.62,2.07,36.99,6.19c11.37,4.13,21.24,9.87,29.59,17.21,8.35,7.35,14.84,16.11,19.48,26.27,4.63,10.17,6.95,21.39,6.95,33.67s-2.37,23.51-7.1,33.67c-4.73,10.17-11.22,18.93-19.48,26.27-8.26,7.35-18.17,13.04-29.74,17.06-11.58,4.02-24.11,6.04-37.6,6.04s-25.57-2.01-36.84-6.04c-11.28-4.02-20.99-9.76-29.14-17.21-8.15-7.45-14.55-16.35-19.18-26.72s-6.95-21.89-6.95-34.58h.01ZM1308.1,274.94c0,5.24.95,10.02,2.87,14.34,1.91,4.33,4.43,8.11,7.55,11.32,3.12,3.22,6.84,5.74,11.17,7.55,4.33,1.81,8.91,2.72,13.74,2.72s9.41-.91,13.74-2.72,8.05-4.33,11.17-7.55,5.63-6.99,7.55-11.32c1.91-4.33,2.87-9.01,2.87-14.04s-.96-9.41-2.87-13.74c-1.92-4.33-4.43-8.1-7.55-11.32s-6.85-5.74-11.17-7.55c-4.33-1.81-8.91-2.72-13.74-2.72s-9.41.91-13.74,2.72-8.05,4.33-11.17,7.55-5.64,6.95-7.55,11.17c-1.92,4.23-2.87,8.76-2.87,13.59Z"/>
    <path d="M1587.42,102.51h54.96v250.64h-54.96v-17.21c-11.68,14.7-27.48,22.04-47.41,22.04-11.28,0-21.64-2.11-31.1-6.34s-17.72-10.06-24.76-17.51c-7.05-7.45-12.53-16.2-16.46-26.27-3.93-10.06-5.89-20.94-5.89-32.61,0-11.07,1.86-21.59,5.59-31.56,3.72-9.96,9.01-18.67,15.85-26.12s15.05-13.33,24.61-17.67c9.56-4.33,20.08-6.49,31.56-6.49,19.33,0,35.33,6.75,48.01,20.23v-111.12h0ZM1518.57,275.24c0,5.03.91,9.71,2.72,14.04,1.81,4.33,4.27,8.11,7.4,11.32,3.12,3.22,6.84,5.74,11.17,7.55,4.33,1.81,9.01,2.72,14.04,2.72s9.41-.91,13.74-2.72,8.05-4.33,11.17-7.55,5.63-6.95,7.55-11.17c1.91-4.23,2.87-8.76,2.87-13.59s-.96-9.41-2.87-13.74c-1.92-4.33-4.43-8.1-7.55-11.32s-6.85-5.74-11.17-7.55c-4.33-1.81-8.91-2.72-13.74-2.72s-9.41.91-13.74,2.72-8.05,4.33-11.17,7.55-5.64,6.9-7.55,11.02c-1.92,4.13-2.87,8.61-2.87,13.44Z"/>
    <path d="M1852.85,198.24v144.34c0,8.66-.5,16.41-1.51,23.25s-2.42,12.88-4.23,18.12c-2.42,6.64-6.19,12.83-11.32,18.57-5.13,5.74-11.32,10.72-18.57,14.95s-15.45,7.55-24.61,9.96c-9.16,2.42-19.08,3.62-29.74,3.62-12.08,0-23.15-1.51-33.22-4.53s-18.87-7.2-26.42-12.53c-7.55-5.34-13.74-11.58-18.57-18.72-4.83-7.15-8.05-14.95-9.66-23.4h61.6c3.82,10.27,12.48,15.4,25.97,15.4,11.48,0,20.28-3.22,26.42-9.66s9.21-15.4,9.21-26.88v-14.8c-4.03,3.83-7.9,7-11.63,9.51-3.73,2.52-7.5,4.58-11.32,6.19-3.83,1.61-7.85,2.76-12.08,3.47-4.23.7-8.86,1.06-13.89,1.06-11.07,0-21.24-1.92-30.5-5.74-9.26-3.82-17.26-9.16-24.01-16s-11.98-15.05-15.7-24.61c-3.73-9.56-5.59-20.18-5.59-31.86s2.01-22.9,6.04-33.07c4.03-10.16,9.51-19.02,16.46-26.57s15.2-13.48,24.76-17.82c9.56-4.33,19.98-6.49,31.25-6.49,18.32,0,33.72,6.85,46.2,20.53v-16.31h54.66v.02ZM1730.25,274.94c0,5.03.91,9.72,2.72,14.04,1.81,4.33,4.27,8.11,7.4,11.32,3.12,3.22,6.84,5.74,11.17,7.55,4.33,1.81,9.01,2.72,14.04,2.72s9.41-.91,13.74-2.72,8.05-4.33,11.17-7.55,5.63-6.99,7.55-11.32c1.91-4.33,2.87-8.91,2.87-13.74s-.96-9.66-2.87-13.89c-1.92-4.23-4.48-7.95-7.7-11.17s-7-5.74-11.32-7.55c-4.33-1.81-8.81-2.72-13.44-2.72s-9.36.96-13.59,2.87c-4.23,1.92-7.96,4.43-11.17,7.55-3.22,3.12-5.79,6.79-7.7,11.02-1.92,4.23-2.87,8.76-2.87,13.59h0Z"/>
    <path d="M1942.83,284.9c0,23.55,11.07,35.33,33.22,35.33,11.88,0,20.84-4.83,26.88-14.49h52.84c-10.67,35.43-37.34,53.15-80.02,53.15-13.09,0-25.06-1.96-35.93-5.89-10.87-3.93-20.19-9.51-27.93-16.76-7.75-7.25-13.74-15.9-17.97-25.97-4.23-10.06-6.34-21.34-6.34-33.82s2.01-24.51,6.04-34.88c4.03-10.37,9.76-19.17,17.21-26.42s16.46-12.83,27.03-16.76c10.57-3.93,22.5-5.89,35.78-5.89s24.86,1.96,35.33,5.89c10.46,3.93,19.33,9.62,26.57,17.06,7.25,7.45,12.78,16.56,16.61,27.33,3.82,10.77,5.74,22.9,5.74,36.39v5.74h-115.06ZM2006.85,253.2c-1.81-7.65-5.54-13.79-11.17-18.42-5.64-4.63-12.48-6.95-20.53-6.95-8.46,0-15.35,2.22-20.68,6.64-5.34,4.43-8.71,10.67-10.12,18.72h62.51,0Z"/>
    <path d="M2143.64,102.51v111.12c12.88-13.48,28.99-20.23,48.32-20.23,11.47,0,21.99,2.17,31.56,6.49,9.56,4.33,17.71,10.17,24.46,17.51,6.74,7.35,12.03,16,15.85,25.97,3.82,9.96,5.74,20.59,5.74,31.86s-1.96,22.25-5.89,32.31c-3.93,10.07-9.41,18.83-16.46,26.27-7.05,7.45-15.35,13.34-24.91,17.67-9.56,4.33-19.88,6.49-30.95,6.49-20.13,0-36.04-7.35-47.71-22.04v17.21h-54.66V102.51h54.66-.01ZM2212.48,276.15c0-4.83-.91-9.41-2.72-13.74s-4.33-8.1-7.55-11.32-6.95-5.78-11.17-7.7c-4.23-1.91-8.86-2.87-13.89-2.87s-9.36.91-13.59,2.72-7.9,4.33-11.02,7.55-5.64,7-7.55,11.32c-1.92,4.33-2.87,8.91-2.87,13.74s.91,9.36,2.72,13.59,4.33,7.9,7.55,11.02,6.99,5.64,11.32,7.55c4.33,1.92,8.91,2.87,13.74,2.87s9.36-.91,13.59-2.72,7.9-4.33,11.02-7.55,5.63-6.95,7.55-11.17c1.91-4.23,2.87-8.65,2.87-13.29h0Z"/>
    <path d="M2420.24,198.24h54.96v154.91h-54.96v-17.21c-11.68,14.7-27.48,22.04-47.41,22.04-11.28,0-21.64-2.07-31.1-6.19-9.46-4.12-17.72-9.91-24.76-17.36-7.05-7.45-12.53-16.2-16.46-26.27-3.93-10.06-5.89-21.03-5.89-32.91,0-11.07,1.91-21.59,5.74-31.56,3.82-9.96,9.16-18.67,16-26.12s14.99-13.33,24.46-17.67c9.46-4.33,19.93-6.49,31.41-6.49,19.33,0,35.33,6.75,48.01,20.23v-15.4h0ZM2351.39,275.24c0,5.03.91,9.71,2.72,14.04,1.81,4.33,4.27,8.11,7.4,11.32,3.12,3.22,6.84,5.74,11.17,7.55,4.33,1.81,9.01,2.72,14.04,2.72s9.41-.91,13.74-2.72,8.05-4.33,11.17-7.55c3.12-3.22,5.63-6.95,7.55-11.17,1.91-4.23,2.87-8.76,2.87-13.59s-.96-9.41-2.87-13.74c-1.92-4.33-4.43-8.1-7.55-11.32s-6.85-5.74-11.17-7.55c-4.33-1.81-8.91-2.72-13.74-2.72s-9.71.91-14.04,2.72-8.05,4.33-11.17,7.55c-3.12,3.22-5.59,6.9-7.4,11.02-1.81,4.13-2.72,8.61-2.72,13.44Z"/>
    <path d="M2566.99,102.51v250.64h-54.66V102.51h54.66Z"/>
    <path d="M2659.09,102.51v250.64h-54.66V102.51h54.66Z"/>
    <path d="M1149.26,546.11c-6.44-5.23-12.89-9.11-19.33-11.63-6.45-2.51-12.68-3.77-18.72-3.77-7.65,0-13.89,1.81-18.72,5.44-4.83,3.62-7.25,8.36-7.25,14.19,0,4.03,1.21,7.35,3.62,9.96,2.42,2.62,5.59,4.88,9.51,6.79,3.93,1.92,8.35,3.58,13.29,4.98,4.93,1.41,9.81,2.92,14.65,4.53,19.33,6.45,33.47,15.05,42.43,25.82,8.96,10.77,13.44,24.81,13.44,42.12,0,11.68-1.96,22.25-5.89,31.71s-9.66,17.57-17.21,24.31c-7.55,6.75-16.81,11.98-27.78,15.7-10.98,3.72-23.4,5.59-37.29,5.59-28.79,0-55.46-8.55-80.02-25.67l25.37-47.71c8.86,7.85,17.61,13.69,26.27,17.51,8.65,3.83,17.21,5.74,25.67,5.74,9.66,0,16.86-2.21,21.59-6.64s7.1-9.46,7.1-15.1c0-3.42-.6-6.39-1.81-8.91-1.21-2.51-3.22-4.83-6.04-6.95-2.82-2.11-6.49-4.08-11.02-5.89s-10.02-3.82-16.46-6.04c-7.65-2.42-15.15-5.08-22.5-8s-13.89-6.79-19.63-11.63c-5.74-4.83-10.37-10.92-13.89-18.27-3.52-7.35-5.28-16.66-5.28-27.93s1.86-21.49,5.59-30.65c3.72-9.16,8.96-17.01,15.7-23.55,6.74-6.54,14.99-11.63,24.76-15.25,9.76-3.62,20.69-5.43,32.76-5.43,11.27,0,23.05,1.56,35.33,4.68,12.28,3.12,24.05,7.7,35.33,13.74l-23.55,46.2h-.02Z"/>
    <path d="M1331.05,610.73c-9.46-6.44-19.02-9.66-28.69-9.66-5.24,0-10.12.91-14.65,2.72s-8.51,4.38-11.93,7.7c-3.43,3.32-6.09,7.25-8,11.78-1.92,4.53-2.87,9.62-2.87,15.25s.95,10.42,2.87,14.95c1.91,4.53,4.53,8.46,7.85,11.78s7.29,5.89,11.93,7.7c4.63,1.81,9.56,2.72,14.8,2.72,10.27,0,19.83-3.52,28.69-10.57v46.5c-13.49,5.84-26.27,8.76-38.35,8.76-11.28,0-22-1.92-32.16-5.74-10.17-3.82-19.13-9.31-26.88-16.46-7.75-7.14-13.94-15.7-18.57-25.67s-6.95-21.09-6.95-33.37,2.21-23.5,6.64-33.67c4.43-10.16,10.46-18.92,18.12-26.27,7.65-7.35,16.76-13.08,27.33-17.21,10.57-4.12,21.89-6.19,33.97-6.19,13.29,0,25.56,2.82,36.84,8.46v46.5h.01Z"/>
    <path d="M1369.69,464.88h54.66v115.35c7.45-9.06,14.99-15.15,22.65-18.27,7.65-3.12,16.61-4.68,26.88-4.68,19.53,0,34.28,5.39,44.24,16.16,9.96,10.77,14.95,25.32,14.95,43.63v98.44h-54.66v-78.21c0-7.85-.61-14.19-1.81-19.02s-3.22-8.55-6.04-11.17c-4.83-4.23-10.67-6.34-17.52-6.34-9.26,0-16.36,2.77-21.29,8.3-4.94,5.54-7.4,13.44-7.4,23.7v82.74h-54.66v-250.63h0Z"/>
    <path d="M1564.16,636.7c0-11.47,2.31-22.19,6.95-32.16,4.63-9.97,11.07-18.62,19.33-25.97,8.25-7.35,18.07-13.14,29.44-17.36,11.37-4.23,23.8-6.34,37.29-6.34s25.62,2.07,36.99,6.19c11.37,4.13,21.24,9.87,29.59,17.21,8.35,7.35,14.84,16.11,19.48,26.27,4.63,10.17,6.95,21.39,6.95,33.67s-2.37,23.51-7.1,33.67c-4.73,10.17-11.22,18.92-19.48,26.27-8.26,7.35-18.17,13.04-29.74,17.06-11.58,4.02-24.11,6.04-37.6,6.04s-25.57-2.01-36.84-6.04c-11.28-4.03-20.99-9.76-29.14-17.21s-14.55-16.35-19.17-26.72c-4.63-10.37-6.95-21.89-6.95-34.58h0ZM1621.84,637.3c0,5.24.95,10.02,2.87,14.34,1.91,4.33,4.43,8.11,7.55,11.32,3.12,3.22,6.84,5.74,11.17,7.55,4.33,1.81,8.91,2.72,13.74,2.72s9.41-.91,13.74-2.72,8.05-4.33,11.17-7.55,5.63-6.99,7.55-11.32c1.91-4.33,2.87-9.01,2.87-14.04s-.96-9.41-2.87-13.74c-1.92-4.33-4.43-8.1-7.55-11.32-3.12-3.22-6.85-5.74-11.17-7.55-4.33-1.81-8.91-2.72-13.74-2.72s-9.41.91-13.74,2.72-8.05,4.33-11.17,7.55-5.64,6.95-7.55,11.17c-1.92,4.23-2.87,8.76-2.87,13.59h0Z"/>
    <path d="M1775.54,636.7c0-11.47,2.31-22.19,6.95-32.16,4.63-9.97,11.07-18.62,19.33-25.97,8.25-7.35,18.07-13.14,29.44-17.36,11.37-4.23,23.8-6.34,37.29-6.34s25.62,2.07,36.99,6.19c11.37,4.13,21.24,9.87,29.59,17.21,8.35,7.35,14.84,16.11,19.48,26.27,4.63,10.17,6.95,21.39,6.95,33.67s-2.37,23.51-7.1,33.67c-4.73,10.17-11.22,18.92-19.48,26.27-8.26,7.35-18.17,13.04-29.74,17.06-11.58,4.02-24.11,6.04-37.6,6.04s-25.57-2.01-36.84-6.04c-11.28-4.03-20.99-9.76-29.14-17.21s-14.55-16.35-19.17-26.72c-4.63-10.37-6.95-21.89-6.95-34.58h0ZM1833.21,637.3c0,5.24.95,10.02,2.87,14.34,1.91,4.33,4.43,8.11,7.55,11.32,3.12,3.22,6.84,5.74,11.17,7.55,4.33,1.81,8.91,2.72,13.74,2.72s9.41-.91,13.74-2.72,8.05-4.33,11.17-7.55,5.63-6.99,7.55-11.32c1.91-4.33,2.87-9.01,2.87-14.04s-.96-9.41-2.87-13.74c-1.92-4.33-4.43-8.1-7.55-11.32-3.12-3.22-6.85-5.74-11.17-7.55-4.33-1.81-8.91-2.72-13.74-2.72s-9.41.91-13.74,2.72-8.05,4.33-11.17,7.55-5.64,6.95-7.55,11.17c-1.92,4.23-2.87,8.76-2.87,13.59h0Z"/>
    <path d="M2047.61,464.88v250.63h-54.66v-250.63h54.66Z"/>
  </g>
</svg>
